<svg width="13" height="10" viewBox="0 0 13 10" fill="none" xmlns="http://www.w3.org/2000/svg">
<path d="M0.932 9.16V8.176H3.032C3.368 8.176 3.612 8.1 3.764 7.948C3.924 7.796 4.004 7.56 4.004 7.24V6.4L4.028 5.2H3.812L4.016 5.02C4.016 5.5 3.856 5.88 3.536 6.16C3.216 6.44 2.788 6.58 2.252 6.58C1.572 6.58 1.036 6.36 0.644 5.92C0.252 5.472 0.0560001 4.872 0.0560001 4.12V2.728C0.0560001 1.976 0.252 1.38 0.644 0.94C1.036 0.5 1.572 0.28 2.252 0.28C2.788 0.28 3.216 0.42 3.536 0.7C3.856 0.98 4.016 1.36 4.016 1.84L3.812 1.66H4.016V0.4H5.084V7.24C5.084 7.832 4.9 8.3 4.532 8.644C4.172 8.988 3.668 9.16 3.02 9.16H0.932ZM2.576 5.644C3.024 5.644 3.376 5.504 3.632 5.224C3.888 4.944 4.016 4.556 4.016 4.06V2.8C4.016 2.304 3.888 1.916 3.632 1.636C3.376 1.356 3.024 1.216 2.576 1.216C2.12 1.216 1.764 1.352 1.508 1.624C1.26 1.896 1.136 2.288 1.136 2.8V4.06C1.136 4.572 1.26 4.964 1.508 5.236C1.764 5.508 2.12 5.644 2.576 5.644Z"/>
<path d="M6.91531 8.2V7.3H12.6753V8.2H6.91531Z" fill="#0099FF"/>
 <style>
        path:first-of-type { fill: #000; }
        @media (prefers-color-scheme: dark) {
            path:first-of-type { fill: #FFF; }
        }
    </style>
</svg>